<svg xmlns="http://www.w3.org/2000/svg" width="173.228" height="80.008" viewBox="0 0 173.228 80.008"><defs><style>.a{fill:#ffd300;}.b{fill:#fff;}.c{font-size:50px;}.c,.d{font-family:Nunito-Regular, Nunito;}.d{fill:gray;font-size:49px;}</style></defs><g transform="translate(0 8.146)"><path d="M-139.229,354.5a9.366,9.366,0,0,0-1.319.126,7.662,7.662,0,0,0-3.328,1.884,14.482,14.482,0,0,0-3.14,4.333,26.933,26.933,0,0,0-2.449,7.912,30.942,30.942,0,0,0-.44,4.144c-.063,1-.063,1.947-.063,2.951a5.37,5.37,0,0,1,0,1c0,.188,0,.314-.188.314a3.057,3.057,0,0,0-.754.063c-.251.063-.377-.063-.5-.251a7.785,7.785,0,0,0-2.575-2.951,4.517,4.517,0,0,0-3.454-.754.693.693,0,0,1-.5,0,1.364,1.364,0,0,0-1.758,1.319,1.471,1.471,0,0,0,.5,1.13,1.35,1.35,0,0,0,2.072-.628.439.439,0,0,1,.5-.377,3.257,3.257,0,0,1,1.507.314,5.389,5.389,0,0,1,2.261,2.323c.188.314.188.314-.188.5a7.889,7.889,0,0,0-3.14,2.261,8.148,8.148,0,0,0-1.947,6.279,8.186,8.186,0,0,0,3.2,5.714.736.736,0,0,1,.314.691,13.338,13.338,0,0,0,1.068,5.212,19.439,19.439,0,0,0,5.777,7.535,24.163,24.163,0,0,0,5.024,3.14,25.839,25.839,0,0,0,5.275,1.7c.628.126,1.319.126,1.947.188h2.826a5.4,5.4,0,0,0,1-.063,12.437,12.437,0,0,0,7.41-3.517.3.3,0,0,1,.44-.063c1.507.691,3.014,1.319,4.521,1.947.063,0,.126.063.188.063h.126c.063-.063,0-.126,0-.188-.063-.063-.063-.126-.126-.188-1.068-1.193-2.2-2.386-3.265-3.579a.42.42,0,0,1-.063-.628,9.076,9.076,0,0,0,.691-1.821,10.958,10.958,0,0,0,.314-3.768,13.36,13.36,0,0,0-.691-3.14,16.83,16.83,0,0,0-2.449-4.71.332.332,0,0,1,.063-.5,48.278,48.278,0,0,0,3.83-4.145,27.872,27.872,0,0,0,4.207-7.1,12.389,12.389,0,0,0,.942-4.207v-.879a1.707,1.707,0,0,1,0-.565h0A6.369,6.369,0,0,0-117,369.571,7.072,7.072,0,0,0-121.081,367a12.308,12.308,0,0,0-4.019-.314,17.611,17.611,0,0,0-3.642.565c-.188.063-.314,0-.314-.251-.126-.691-.314-1.382-.5-2.072a18.994,18.994,0,0,0-3.893-7.787,6.944,6.944,0,0,0-4.835-2.637Zm.251,1.319a5.38,5.38,0,0,1,2.951,1,10.217,10.217,0,0,1,2.951,3.391,23.272,23.272,0,0,1,2.575,7.347c0,.188,0,.188-.188.251a38.957,38.957,0,0,0-10.236,5.4c-.126.126-.251.126-.44,0a2.917,2.917,0,0,0-4.144,2.009,2.461,2.461,0,0,0,1.947,2.763,2.936,2.936,0,0,0,3.579-2.261,2.134,2.134,0,0,0-.188-1.256c-.063-.188-.063-.251.063-.314a36.018,36.018,0,0,1,10.989-5.463,18.3,18.3,0,0,1,5.212-.691,9.12,9.12,0,0,1,3.893.942,5.529,5.529,0,0,1,2.951,4.584,10.609,10.609,0,0,1-.816,5.024,25.439,25.439,0,0,1-4.27,7.1,32.7,32.7,0,0,1-3.517,3.7c-.188.188-.251.126-.377,0a22.8,22.8,0,0,0-12.622-7.1,15.288,15.288,0,0,0-3.768-.314.344.344,0,0,1-.377-.251,8.1,8.1,0,0,0-5.526-4.27c-.188-.063-.251-.126-.251-.251,0-.754-.063-1.507-.063-1.947a35.344,35.344,0,0,1,1.821-11.366,17.2,17.2,0,0,1,3.14-5.652,7.678,7.678,0,0,1,2.826-2.072A6.577,6.577,0,0,1-138.978,355.819Zm-3.642,17.771a1.848,1.848,0,0,1,1.947,2.261,2.29,2.29,0,0,1-2.009,1.633,1.976,1.976,0,0,1-2.009-1.13,1.9,1.9,0,0,1,.628-2.2A2.1,2.1,0,0,1-142.62,373.59Z" transform="translate(159.7 -354.5)"/><path class="a" d="M-135.45,425.517c-.063,0-.126-.063-.188-.063a33.208,33.208,0,0,1-3.14-2.009c-.126-.126-.188-.188-.063-.314,3.2-3.893,6.342-7.787,9.545-11.68l4.9-6.028c.126-.126.188-.188.314-.063a20.549,20.549,0,0,1,3.014,2.2c.126.126.126.188,0,.377-4.144,5.086-8.289,10.173-12.433,15.2-.628.754-1.193,1.444-1.821,2.2,0,.063-.063.188-.126.188" transform="translate(151.965 -373.397)"/><path class="a" d="M-135.945,400.6a17.569,17.569,0,0,1,4.019.816.061.061,0,0,1,.063.063c.251.063.314.126.126.314-1.507,1.821-2.951,3.579-4.458,5.4-2.512,3.014-4.961,6.091-7.473,9.105-.5.628-1.068,1.256-1.57,1.947-.126.188-.188.126-.314,0a18.864,18.864,0,0,1-2.072-3.391c-.063-.188-.063-.251.063-.377,3.768-4.584,7.473-9.168,11.24-13.752.188,0,.251-.126.377-.126" transform="translate(155.223 -371.652)"/><path class="a" d="M-114.236,413.5a14.355,14.355,0,0,1,2.072,3.7.372.372,0,0,1-.063.44c-2.135,2.575-4.27,5.212-6.405,7.849l-4.144,5.086a1.013,1.013,0,0,1-.816.377,19.184,19.184,0,0,1-4.207-.816c4.521-5.589,9.042-11.115,13.564-16.641" transform="translate(147.832 -376.451)"/><path class="b" d="M-145.1,400.309a1.981,1.981,0,0,1-1.947-1.382,2.013,2.013,0,0,1,.942-2.261,2.254,2.254,0,0,1,2.637.063,1.92,1.92,0,0,1-.314,3.2,2.471,2.471,0,0,1-1.319.377" transform="translate(155.021 -370.042)"/></g><g transform="translate(46.875)"><text class="c" transform="translate(0 62.008)"><tspan x="0" y="0">b</tspan></text><text class="c" transform="translate(31.317 62.008)"><tspan x="0" y="0">e</tspan></text><text class="c" transform="translate(59.674 62.008)"><tspan x="0" y="0">e</tspan></text><text class="d" transform="translate(88.03 50)"><tspan x="0" y="0">.</tspan></text><text class="c" transform="translate(100.353 62.008)"><tspan x="0" y="0">z</tspan></text></g></svg>