<svg xmlns="http://www.w3.org/2000/svg" width="74" height="69.317" viewBox="0 0 74 69.317"><defs><style>.a{fill:#ffebac;}.b{fill:#ffd300;}.c{fill:#fff;}.d{font-size:17px;}.d,.e,.f{font-family: Nunito, sans-serif;}.e{fill:gray;font-size:18px;}.f{font-size:16px;}</style></defs><path class="a" d="M0,0H40.317a29,29,0,0,1,29,29V45a29,29,0,0,1-29,29H0a0,0,0,0,1,0,0V0A0,0,0,0,1,0,0Z" transform="translate(74) rotate(90)"/><g transform="translate(9 20.994)"><g transform="translate(0 0.006)"><g transform="translate(0 4.158)"><path d="M-151.358,354.5a3.987,3.987,0,0,0-.537.049,3.162,3.162,0,0,0-1.356.734,5.661,5.661,0,0,0-1.279,1.688,10.164,10.164,0,0,0-1,3.083,11.547,11.547,0,0,0-.179,1.615c-.026.392-.026.759-.026,1.15a2,2,0,0,1,0,.392c0,.073,0,.122-.077.122a1.3,1.3,0,0,0-.307.024c-.1.025-.154-.024-.2-.1a3.079,3.079,0,0,0-1.049-1.15,1.907,1.907,0,0,0-1.407-.294.3.3,0,0,1-.2,0,.552.552,0,0,0-.716.514.562.562,0,0,0,.2.44.561.561,0,0,0,.844-.245.177.177,0,0,1,.2-.147,1.379,1.379,0,0,1,.614.122,2.147,2.147,0,0,1,.921.905c.077.122.077.122-.077.2a3.215,3.215,0,0,0-1.279.881,3.083,3.083,0,0,0-.793,2.447,3.158,3.158,0,0,0,1.305,2.227.282.282,0,0,1,.128.269,5,5,0,0,0,.435,2.031,7.625,7.625,0,0,0,2.354,2.936,9.925,9.925,0,0,0,2.047,1.223,10.875,10.875,0,0,0,2.149.661c.256.049.537.049.793.073h1.151a2.3,2.3,0,0,0,.409-.025,5.167,5.167,0,0,0,3.019-1.37.127.127,0,0,1,.179-.024c.614.269,1.228.514,1.842.759.026,0,.051.024.077.024h.051c.026-.024,0-.049,0-.073-.026-.025-.026-.049-.051-.073-.435-.465-.9-.93-1.331-1.395a.159.159,0,0,1-.026-.245,3.442,3.442,0,0,0,.281-.71,4.09,4.09,0,0,0,.128-1.468,5.014,5.014,0,0,0-.281-1.224,6.462,6.462,0,0,0-1-1.835c-.051-.073-.051-.122.026-.2a19.162,19.162,0,0,0,1.561-1.615,10.77,10.77,0,0,0,1.714-2.765,4.65,4.65,0,0,0,.384-1.639v-.343a.636.636,0,0,1,0-.22h0a2.417,2.417,0,0,0-.589-1.542,2.9,2.9,0,0,0-1.663-1,5.235,5.235,0,0,0-1.638-.122,7.483,7.483,0,0,0-1.484.22c-.077.024-.128,0-.128-.1-.051-.269-.128-.538-.2-.807A7.282,7.282,0,0,0-149,355.528a2.866,2.866,0,0,0-1.97-1.028Zm.1.514a2.26,2.26,0,0,1,1.2.391,4.04,4.04,0,0,1,1.2,1.321,8.809,8.809,0,0,1,1.049,2.863c0,.073,0,.073-.077.1a16.133,16.133,0,0,0-4.171,2.1c-.051.049-.1.049-.179,0a1.2,1.2,0,0,0-1.689.783.963.963,0,0,0,.793,1.077,1.2,1.2,0,0,0,1.459-.881.8.8,0,0,0-.077-.489c-.026-.073-.026-.1.026-.122a14.955,14.955,0,0,1,4.478-2.129,7.779,7.779,0,0,1,2.124-.269,3.856,3.856,0,0,1,1.587.367,2.15,2.15,0,0,1,1.2,1.786,3.972,3.972,0,0,1-.333,1.957,9.838,9.838,0,0,1-1.74,2.765,13,13,0,0,1-1.433,1.444c-.077.073-.1.049-.154,0a9.4,9.4,0,0,0-5.143-2.765,6.506,6.506,0,0,0-1.535-.122.14.14,0,0,1-.154-.1,3.284,3.284,0,0,0-2.252-1.664c-.077-.024-.1-.049-.1-.1,0-.294-.026-.587-.026-.759a13.224,13.224,0,0,1,.742-4.429,6.625,6.625,0,0,1,1.279-2.2,3.124,3.124,0,0,1,1.152-.807A2.791,2.791,0,0,1-151.256,355.014Zm-1.484,6.925a.731.731,0,0,1,.793.881.925.925,0,0,1-.819.636.812.812,0,0,1-.819-.44.721.721,0,0,1,.256-.856A.876.876,0,0,1-152.74,361.939Z" transform="translate(159.7 -354.5)"/><path class="b" d="M-137.5,413.533c-.026,0-.051-.026-.077-.026a13.537,13.537,0,0,1-1.279-.819c-.051-.051-.077-.077-.026-.128,1.305-1.586,2.585-3.173,3.89-4.76l2-2.456c.051-.051.077-.077.128-.026a8.374,8.374,0,0,1,1.228.9c.051.051.051.077,0,.154-1.689,2.073-3.378,4.145-5.067,6.193-.256.307-.486.589-.742.9,0,.026-.026.077-.051.077" transform="translate(144.229 -393.294)"/><path class="b" d="M-142.889,400.6a7.16,7.16,0,0,1,1.638.333.025.025,0,0,1,.026.026c.1.026.128.051.051.128-.614.742-1.2,1.459-1.817,2.2-1.024,1.228-2.022,2.482-3.045,3.71-.2.256-.435.512-.64.793-.051.077-.077.051-.128,0a7.687,7.687,0,0,1-.844-1.382c-.026-.077-.026-.1.026-.154,1.535-1.868,3.045-3.736,4.58-5.6.077,0,.1-.051.154-.051" transform="translate(150.745 -389.559)"/><path class="b" d="M-122.273,413.5a5.85,5.85,0,0,1,.844,1.51.152.152,0,0,1-.026.179c-.87,1.049-1.74,2.124-2.61,3.2l-1.689,2.073a.413.413,0,0,1-.333.154,7.817,7.817,0,0,1-1.714-.333c1.842-2.277,3.685-4.529,5.527-6.781" transform="translate(135.963 -399.403)"/><path class="c" d="M-146.3,397.918a.807.807,0,0,1-.793-.563.82.82,0,0,1,.384-.921.919.919,0,0,1,1.075.026.783.783,0,0,1-.128,1.305,1.007,1.007,0,0,1-.537.154" transform="translate(150.341 -386.088)"/></g><g transform="translate(19.102)"><text class="d" transform="translate(0 21.324)"><tspan x="0" y="0">b</tspan></text><text class="d" transform="translate(9.226 21.324)"><tspan x="0" y="0">e</tspan></text><text class="d" transform="translate(17.579 21.324)"><tspan x="0" y="0">e</tspan></text><text class="e" transform="translate(26.623 18)"><tspan x="0" y="0">.</tspan></text><text class="f" transform="translate(29.748 20.324)"><tspan x="0" y="0">z</tspan></text></g></g></g></svg>
