<svg width="7" height="8" viewBox="0 0 7 8" fill="none" xmlns="http://www.w3.org/2000/svg">
<path d="M2.10779 6.66675H0.774455V1.33341H3.10779V3.00008H4.77446V4.03341L5.44112 3.36675V2.66675L3.44112 0.666748H0.774455C0.407788 0.666748 0.107788 0.966748 0.107788 1.33341V6.66675C0.107788 7.03341 0.407788 7.33342 0.774455 7.33342H2.10779V6.66675ZM5.50779 4.33341C5.54112 4.33341 5.60779 4.36675 5.64112 4.40008L6.07446 4.83342C6.14112 4.90008 6.14112 5.03341 6.07446 5.10008L5.74112 5.43341L5.04112 4.73341L5.37445 4.40008C5.40779 4.36675 5.44112 4.33341 5.50779 4.33341ZM5.50779 5.63341L3.47446 7.66675H2.77446V6.96675L4.80779 4.93341L5.50779 5.63341Z" fill="white"/>
</svg>
