<svg width="25" height="25" viewBox="0 0 25 25" fill="none" xmlns="http://www.w3.org/2000/svg">
<path d="M12.9546 19.8937L12.748 22.8812C12.7338 23.085 12.557 23.2391 12.3531 23.2249C12.2639 23.2188 12.18 23.1806 12.1168 23.1174C12.0535 23.0543 12.0153 22.9703 12.0091 22.8812L11.8025 19.8937C11.7804 19.5755 12.0205 19.2998 12.3386 19.2777C12.6568 19.256 12.9325 19.4961 12.9546 19.8139C12.9563 19.8398 12.9563 19.8684 12.9546 19.8937Z" fill="#2C3C47"/>
<path d="M22.3689 5.57724C22.3689 5.57724 22.3219 5.55859 22.2338 5.53686C22.1458 5.51508 22.0162 5.48915 21.8508 5.47226C21.7598 5.46264 21.6686 5.45653 21.5772 5.45395C21.4687 5.45262 21.3603 5.45526 21.252 5.46186C21.1363 5.46879 21.013 5.48017 20.8835 5.49711C20.7533 5.51474 20.6154 5.54096 20.4731 5.57275C20.1891 5.63354 19.8785 5.73407 19.5531 5.8287C19.3908 5.87709 19.2211 5.93373 19.0505 5.98764C18.9644 6.01591 18.8792 6.0436 18.7914 6.07436C18.7037 6.10541 18.6152 6.13686 18.5262 6.16865C18.4373 6.20043 18.3482 6.23256 18.258 6.26464C18.1676 6.29921 18.0764 6.33407 17.9848 6.36899C17.8936 6.40492 17.802 6.44086 17.7098 6.47714C17.6179 6.5141 17.5246 6.55488 17.4318 6.59389C17.3392 6.63364 17.2462 6.67338 17.153 6.71342L16.8721 6.8416C16.7785 6.88583 16.6859 6.92763 16.5923 6.9746L16.3121 7.11591L16.1733 7.18671L16.0337 7.26201C15.9408 7.31171 15.8489 7.36323 15.7576 7.4143C15.6661 7.46645 15.575 7.52206 15.4844 7.57563C15.3943 7.62988 15.3048 7.68276 15.2154 7.74145C15.1268 7.79775 15.0388 7.85488 14.9514 7.91284C14.8649 7.97248 14.7789 8.03282 14.6934 8.09384C14.6506 8.12426 14.6087 8.15327 14.5665 8.18432C14.5248 8.21577 14.4833 8.24721 14.4419 8.27866C14.359 8.34223 14.2778 8.40127 14.1983 8.46865C13.8894 8.71723 13.5977 8.9865 13.3253 9.27461C13.0645 9.54892 12.8393 9.82837 12.6527 10.0947C12.6005 10.1701 12.5494 10.2463 12.4996 10.3233C12.4499 10.2464 12.3989 10.1703 12.3467 10.095C12.1601 9.829 11.9346 9.54951 11.6741 9.2749C11.4016 8.98696 11.11 8.71781 10.8011 8.46928C10.7217 8.40195 10.6402 8.34287 10.5576 8.27924L10.4328 8.18496C10.3907 8.15385 10.3486 8.12485 10.3061 8.09448C10.2214 8.03466 10.135 7.97319 10.048 7.91376C9.96058 7.85574 9.8726 7.79851 9.78411 7.74208C9.69461 7.68369 9.60516 7.63051 9.51497 7.57661C9.42449 7.52304 9.33289 7.46708 9.24173 7.41494C9.15022 7.36337 9.0582 7.3127 8.96571 7.26293L8.8262 7.1873L8.68729 7.11684L8.40711 6.97558C8.31351 6.92861 8.22088 6.88676 8.12728 6.84223C8.03367 6.79941 7.93973 6.75688 7.84642 6.71406C7.75316 6.67431 7.66029 6.63461 7.56766 6.59487C7.47503 6.5558 7.38143 6.51508 7.28958 6.47812L7.01453 6.37001C6.92353 6.33533 6.83256 6.30055 6.74163 6.26567C6.6515 6.23354 6.56199 6.20141 6.47327 6.16967L6.20828 6.07533C6.12059 6.04457 6.03489 6.01664 5.9492 5.98862C5.7786 5.93471 5.60863 5.87807 5.44622 5.82973C5.12083 5.73505 4.81063 5.6349 4.52669 5.57338C4.38402 5.54164 4.24617 5.51571 4.11595 5.4974C3.98641 5.48051 3.86346 5.46908 3.7473 5.4622C3.63909 5.45541 3.53066 5.45275 3.42225 5.45424C3.33087 5.45693 3.23961 5.46293 3.14866 5.47221C2.98353 5.48949 2.85399 5.51537 2.76595 5.53715C2.67747 5.55859 2.6305 5.57724 2.6305 5.57724C1.82108 5.89955 1.11536 6.50995 0.691487 7.34868C-0.230486 9.17334 0.501448 11.3998 2.32581 12.3215L2.63055 12.4756C2.63055 12.4756 2.66927 12.4949 2.7411 12.5181C2.81331 12.5416 2.91864 12.5699 3.05262 12.5899C3.11966 12.6 3.19388 12.6079 3.27445 12.6134C3.36039 12.6206 3.4466 12.624 3.53284 12.6235C3.63124 12.6227 3.72955 12.6177 3.82752 12.6086C3.93109 12.5997 4.03822 12.589 4.15189 12.5699C4.26483 12.5526 4.38543 12.5243 4.50628 12.5008C4.62825 12.4763 4.75467 12.4511 4.88421 12.4252C5.01478 12.3986 5.14505 12.3778 5.28153 12.353C5.34915 12.3413 5.41898 12.3264 5.48739 12.3153C5.55614 12.304 5.62518 12.2926 5.69505 12.2808C5.76546 12.2691 5.83631 12.2577 5.90784 12.2456C5.97825 12.2355 6.0491 12.2256 6.12064 12.2155C6.19251 12.2048 6.26502 12.1941 6.33758 12.1831C6.41043 12.1724 6.48128 12.1647 6.55418 12.1551C6.62713 12.1458 6.70032 12.1368 6.77391 12.1274C6.84613 12.1202 6.91873 12.1126 6.99124 12.1053C7.06375 12.0978 7.13909 12.088 7.21126 12.0822L7.42884 12.0639L7.53875 12.0549L7.64588 12.049C7.7181 12.0448 7.79027 12.0404 7.86248 12.0358C7.93436 12.032 8.00374 12.0307 8.07528 12.0279C8.14647 12.0251 8.21829 12.0224 8.28636 12.0231C8.56854 12.0169 8.83626 12.0266 9.09847 12.0428C9.16341 12.0479 9.22801 12.0528 9.29193 12.0576C9.35487 12.0649 9.41732 12.0718 9.47918 12.0787C9.54276 12.0849 9.6015 12.0949 9.66263 12.1033C9.6931 12.1074 9.72342 12.1119 9.75345 12.1161C9.7828 12.1216 9.81224 12.1268 9.84124 12.132C10.0751 12.1748 10.2983 12.2249 10.5028 12.2909C10.6054 12.323 10.7055 12.3565 10.8002 12.3938C10.8478 12.4114 10.8952 12.4301 10.9411 12.4491C10.987 12.4674 11.032 12.486 11.0759 12.5064C11.252 12.5834 11.4072 12.6677 11.5484 12.7427C11.6161 12.778 11.6839 12.817 11.7391 12.8474C11.8013 12.8836 11.8566 12.9182 11.8991 12.9413C11.9764 12.9776 12.0176 12.9973 12.0176 12.9973C12.1685 13.0678 12.3359 13.0955 12.5015 13.0775C12.6661 13.0959 12.8326 13.0681 12.9824 12.9973C12.9824 12.9973 13.0234 12.9776 13.1009 12.941C13.143 12.9182 13.1986 12.8836 13.2608 12.8471C13.3161 12.817 13.3834 12.778 13.4514 12.7427C13.5925 12.6677 13.7479 12.5834 13.9241 12.5064C14.1003 12.4294 14.2916 12.3548 14.4975 12.2909C14.7021 12.2252 14.9252 12.1751 15.1591 12.1323C15.1881 12.1271 15.2171 12.122 15.2465 12.1164C15.2766 12.1122 15.3069 12.1081 15.3377 12.1036C15.3989 12.0957 15.4576 12.0856 15.5207 12.0791C15.5826 12.0721 15.6451 12.0652 15.7079 12.0583C15.7722 12.0535 15.8365 12.0483 15.9017 12.0435C16.1639 12.0269 16.4317 12.0176 16.7136 12.0238C16.7817 12.0231 16.8538 12.0258 16.9247 12.0286C16.9961 12.0314 17.0656 12.0328 17.1375 12.0365C17.2097 12.041 17.2819 12.0455 17.3541 12.0497L17.4612 12.0555L17.5714 12.0648L17.7887 12.0828C17.8609 12.0887 17.9362 12.0987 18.0087 12.106C18.0812 12.1135 18.1538 12.1208 18.226 12.1281C18.2996 12.1374 18.3728 12.1468 18.4457 12.1558C18.5186 12.1654 18.5894 12.1733 18.6623 12.1841C18.7349 12.1948 18.8075 12.2055 18.8793 12.2162C18.9508 12.2263 19.0216 12.2366 19.0921 12.2466C19.1636 12.2584 19.2344 12.2701 19.3049 12.2819C19.3746 12.2933 19.4438 12.3046 19.5125 12.3161C19.5809 12.3271 19.6507 12.3419 19.7184 12.3537C19.8549 12.3786 19.9851 12.3996 20.1153 12.4259C20.2451 12.4518 20.3712 12.4771 20.4935 12.5016C20.6141 12.5254 20.735 12.5534 20.848 12.5707C20.9613 12.5894 21.0687 12.6004 21.1724 12.609C21.2764 12.6187 21.3748 12.6231 21.4671 12.6235C21.5594 12.6242 21.6457 12.6204 21.7251 12.6135C21.7994 12.6086 21.8735 12.6008 21.9472 12.59C22.0813 12.5696 22.1867 12.5416 22.2585 12.5181C22.3307 12.495 22.369 12.4756 22.369 12.4756L22.6796 12.3187C23.4568 11.9246 24.099 11.2558 24.4455 10.3822C25.1989 8.48178 24.2693 6.33066 22.3689 5.57724Z" fill="#D4DDE3"/>
<path d="M13.53 6.79025C13.2019 6.58865 12.8243 6.48193 12.4392 6.48193C12.0541 6.48193 11.6766 6.58865 11.3484 6.79025C8.94756 8.26119 7.3457 10.9088 7.3457 13.9307C7.3457 16.9679 8.96343 19.6269 11.3847 21.0933C12.0317 21.4851 12.847 21.4851 13.4937 21.0933C15.9149 19.6269 17.5327 16.9679 17.5327 13.9307C17.5327 10.9088 15.9309 8.26119 13.53 6.79025Z" fill="#F6BD60"/>
<path d="M16.7075 17.5566C16.2826 18.4382 15.7067 19.2386 15.0059 19.9216H9.87261C9.17181 19.2385 8.59591 18.4382 8.17095 17.5566H16.7075ZM7.34561 13.9307C7.34561 14.2636 7.36617 14.5915 7.40396 14.9143H17.4743C17.5128 14.5878 17.5323 14.2594 17.5326 13.9307C17.5328 13.4679 17.4948 13.0059 17.4191 12.5494H7.45914C7.38344 13.0059 7.34547 13.4679 7.34561 13.9307ZM8.35967 9.93632H16.5189C16.0611 9.09548 15.463 8.33907 14.7504 7.69974C14.9497 7.31854 15.063 6.86918 15.063 6.36718C15.063 5.60048 14.4735 4.90277 13.8535 4.38065C13.8589 4.37162 13.8642 4.36259 13.8699 4.35351C13.9172 4.27885 13.967 4.20253 14.0222 4.12689C14.0761 4.05053 14.1349 3.97489 14.1946 3.89994C14.435 3.60077 14.7093 3.32304 14.9221 3.12577C15.007 3.04668 15.0937 2.96962 15.1823 2.89467C15.2143 2.86723 15.2469 2.8405 15.28 2.81449C15.3122 2.78929 15.3418 2.76094 15.3684 2.72987C15.5754 2.48495 15.5449 2.11879 15.3 1.91186C15.0554 1.70453 14.689 1.73529 14.482 1.98026L14.4654 1.99994C14.4654 1.99994 14.4268 2.0452 14.3673 2.12152C14.2857 2.22575 14.2067 2.33195 14.1303 2.44003C13.9414 2.70604 13.705 3.07011 13.5058 3.46083C13.4564 3.55897 13.4084 3.65775 13.3644 3.75756C13.3349 3.82406 13.307 3.8913 13.2809 3.95922C12.7257 3.64857 12.0376 3.6683 11.4994 4.01854C11.4664 3.93048 11.4308 3.84341 11.3926 3.75746C11.3491 3.65766 11.3011 3.55917 11.2517 3.46107C11.0521 3.07035 10.8161 2.70595 10.6271 2.43993C10.5505 2.33199 10.4715 2.22579 10.3901 2.12143C10.3303 2.0454 10.2919 1.99979 10.2919 1.99979L10.2733 1.97768C10.2474 1.94741 10.2184 1.91986 10.1869 1.89545C9.93306 1.69955 9.56856 1.74657 9.37237 2.00009C9.17647 2.25399 9.22344 2.61845 9.47706 2.81435C9.47706 2.81435 9.51153 2.84096 9.57515 2.89447C9.63809 2.94769 9.72891 3.0268 9.83526 3.12562C10.0482 3.32284 10.3221 3.60062 10.5628 3.90009C10.6222 3.97414 10.6797 4.0497 10.7352 4.1267C10.7883 4.2007 10.839 4.27639 10.8872 4.35365C10.9075 4.38588 10.9262 4.41776 10.9449 4.44921C10.3552 4.96312 9.81563 5.63353 9.81563 6.36713C9.81563 6.86918 9.92891 7.31859 10.1282 7.69979C9.41562 8.33912 8.81749 9.09551 8.35967 9.93632Z" fill="#2C3C47"/>
</svg>
