<?xml version="1.0" encoding="UTF-8" standalone="no"?>
<!-- Created with Inkscape (http://www.inkscape.org/) -->

<svg
   xmlns:dc="http://purl.org/dc/elements/1.1/"
   xmlns:cc="http://creativecommons.org/ns#"
   xmlns:rdf="http://www.w3.org/1999/02/22-rdf-syntax-ns#"
   xmlns:svg="http://www.w3.org/2000/svg"
   xmlns="http://www.w3.org/2000/svg"
   xmlns:sodipodi="http://sodipodi.sourceforge.net/DTD/sodipodi-0.dtd"
   xmlns:inkscape="http://www.inkscape.org/namespaces/inkscape"
   width="210mm"
   height="297mm"
   viewBox="0 0 210 297"
   version="1.1"
   id="svg8"
   inkscape:version="0.92.3 (2405546, 2018-03-11)"
   sodipodi:docname="node-sticker-small.svg"
   inkscape:export-filename="C:\bee-z\logo\beez-1012png.png"
   inkscape:export-xdpi="600.24634"
   inkscape:export-ydpi="600.24634">
  <defs
     id="defs2" />
  <sodipodi:namedview
     id="base"
     pagecolor="#ffffff"
     bordercolor="#666666"
     borderopacity="1.0"
     inkscape:pageopacity="0.0"
     inkscape:pageshadow="2"
     inkscape:zoom="2.8"
     inkscape:cx="349.65367"
     inkscape:cy="746.44793"
     inkscape:document-units="mm"
     inkscape:current-layer="surface10200"
     showgrid="false"
     inkscape:window-width="1291"
     inkscape:window-height="1018"
     inkscape:window-x="-7"
     inkscape:window-y="0"
     inkscape:window-maximized="0" />
  <metadata
     id="metadata5">
    <rdf:RDF>
      <cc:Work
         rdf:about="">
        <dc:format>image/svg+xml</dc:format>
        <dc:type
           rdf:resource="http://purl.org/dc/dcmitype/StillImage" />
        <dc:title />
      </cc:Work>
    </rdf:RDF>
  </metadata>
  <g
     inkscape:label="Layer 1"
     inkscape:groupmode="layer"
     id="layer1">
    <g
       transform="translate(64.978884,-157.33264)"
       id="layer1-0"
       inkscape:label="Layer 1">
      <g
         transform="matrix(0.35277779,0,0,0.35277779,-217.53607,-44.296438)"
         id="surface10200">
        <path
           style="fill:#000000;fill-opacity:1;fill-rule:nonzero;stroke:none;stroke-width:0.10244774"
           d="m 787.94817,784.88947 c -0.75642,0.002 -1.51186,0.0659 -2.25121,0.25874 -2.17981,0.56866 -4.04384,1.73743 -5.68701,3.23452 -2.27586,2.07377 -3.95133,4.61307 -5.30075,7.35434 -2.09658,4.25839 -3.3921,8.78012 -4.17727,13.45029 -0.39338,2.3395 -0.61661,4.6971 -0.74987,7.06821 -0.0944,1.67357 -0.15969,3.31562 -0.12648,4.9872 0.0129,0.6403 0.0687,1.09039 0.0511,1.65626 -0.008,0.27212 0.0377,0.53648 -0.29246,0.52327 -0.42901,-0.0172 -0.85308,0.0323 -1.27369,0.10277 -0.40979,0.0688 -0.63377,-0.0719 -0.83787,-0.46005 -1.05289,-2.00533 -2.42243,-3.76529 -4.31691,-5.04148 -1.77843,-1.19737 -3.74279,-1.69797 -5.88779,-1.29898 -0.28853,0.0537 -0.56577,0.077 -0.8579,-0.006 -1.52711,-0.4322 -2.97994,0.68346 -2.99423,2.21801 0.0173,0.73323 0.34067,1.52541 0.85211,1.87758 1.27219,0.8764 2.96777,0.37902 3.51802,-1.06606 0.15688,-0.41219 0.36485,-0.5931 0.81786,-0.5923 0.88682,10e-4 1.72839,0.15545 2.52996,0.53802 1.75682,0.83839 2.89704,2.28881 3.8711,3.89955 0.33935,0.56107 0.31806,0.56676 -0.28983,0.82207 -2.05896,0.86441 -3.87387,2.06824 -5.32974,3.78784 -2.60322,3.07503 -3.75809,6.60911 -3.34149,10.62258 0.41259,3.97666 2.25641,7.18287 5.38506,9.64402 0.43261,0.34015 0.57779,0.68583 0.57018,1.20728 -0.0428,3.08784 0.6663,6.02925 1.84965,8.85777 2.1418,5.1204 5.52362,9.30513 9.79842,12.79475 2.60401,2.1258 5.4453,3.87704 8.50313,5.27809 2.87053,1.31501 5.85631,2.25211 8.95895,2.83719 1.09051,0.2057 2.19442,0.22849 3.28932,0.36255 h 0.40946 c 0.18729,0 0.16036,4e-4 0.23239,-0.002 0.072,0.003 0.0575,-0.002 0.17759,0.002 h 0.30722 c 0.33455,-0.002 0.50972,0.004 0.61497,0 0.75115,0 1.47897,0.004 2.23012,0.004 0.15207,0.002 0.19989,-0.003 0.27192,-0.005 0.0724,0.003 0.1023,0.003 0.16072,0.002 h 0.20499 c 0.67231,-0.0232 1.11812,-0.0446 1.66838,-0.11857 4.81824,-0.6495 9.09844,-2.45913 12.59607,-5.91994 0.24892,-0.24611 0.44838,-0.27058 0.76253,-0.13332 2.56239,1.12292 5.13247,2.22799 7.69686,3.34571 0.0941,0.0408 0.18596,0.0868 0.2872,0.10645 0.0852,0.016 0.17256,0.0216 0.23819,-0.0485 0.0848,-0.0904 0.0531,-0.1896 0.006,-0.28404 -0.0544,-0.10805 -0.13996,-0.19231 -0.2208,-0.28034 -1.85486,-2.02255 -3.67685,-4.07573 -5.56213,-6.07066 -0.33216,-0.35136 -0.38648,-0.66274 -0.14598,-1.09134 0.53786,-0.95765 0.87579,-2.00045 1.15512,-3.05693 0.55907,-2.1122 0.71996,-4.25294 0.52907,-6.43796 -0.16047,-1.83325 -0.54086,-3.61088 -1.12032,-5.34448 -0.95925,-2.86934 -2.37729,-5.50878 -4.17253,-7.94192 -0.25571,-0.34696 -0.18042,-0.52528 0.10171,-0.79941 2.28947,-2.22263 4.52016,-4.49873 6.50909,-7.0039 2.92256,-3.68092 5.47409,-7.57956 7.13406,-12.00482 0.86561,-2.30668 1.56868,-4.65692 1.57669,-7.15568 0,-0.48703 -1.8e-4,-0.97504 -5.2e-4,-1.46286 0.0284,-0.30854 -0.0537,-0.61143 -0.0485,-0.91798 v -5.2e-4 c 0.0452,-2.566 -0.96545,-4.77095 -2.45935,-6.75308 -1.73321,-2.29947 -4.15115,-3.59555 -6.89483,-4.3343 -2.23544,-0.60188 -4.50008,-0.67916 -6.80155,-0.52749 -2.08578,0.13727 -4.13949,0.42596 -6.16604,0.92219 -0.35776,0.0876 -0.49615,-0.0369 -0.55858,-0.37467 -0.2181,-1.17575 -0.4907,-2.33952 -0.80205,-3.49326 -1.309,-4.85067 -3.27159,-9.39253 -6.61395,-13.2063 -2.169,-2.47516 -4.79929,-4.27001 -8.22489,-4.48291 -0.45111,-0.0279 -0.90519,-0.0488 -1.35905,-0.0474 z m 0.47954,2.25489 c 1.72671,0.0185 3.38054,0.60825 4.95928,1.69051 2.16981,1.48749 3.73413,3.52176 5.02673,5.7708 2.23184,3.88342 3.51936,8.10185 4.34694,12.47909 0.0529,0.28053 -0.039,0.34026 -0.27349,0.41789 -6.29973,2.08857 -11.99681,5.32306 -17.37092,9.16605 -0.25572,0.18288 -0.42889,0.18724 -0.70983,0.0464 -2.91455,-1.46029 -6.42943,0.27541 -7.0313,3.45689 -0.39019,2.06297 1.07963,4.15187 3.30987,4.70213 2.73528,0.67551 5.51057,-1.09605 6.02481,-3.86214 0.13686,-0.73674 0.0276,-1.46532 -0.27613,-2.14844 -0.11966,-0.26853 -0.0937,-0.40857 0.15282,-0.58546 5.70025,-4.08911 11.79208,-7.39373 18.59085,-9.27461 2.88654,-0.79877 5.82494,-1.28352 8.83195,-1.17988 2.30147,0.0796 4.53587,0.4806 6.58603,1.60673 3.05422,1.67798 4.63692,4.31523 4.98668,7.73322 0.30134,2.95098 -0.34949,5.76181 -1.37116,8.49628 -1.67038,4.46888 -4.24242,8.40592 -7.24421,12.08123 -1.83806,2.25065 -3.84726,4.33898 -5.96105,6.3315 -0.28493,0.26893 -0.40743,0.23565 -0.65555,-0.0369 -5.8079,-6.37137 -12.95846,-10.37268 -21.408,-12.04065 -2.09378,-0.4134 -4.22124,-0.58646 -6.35943,-0.52803 -0.33376,0.009 -0.50073,-0.087 -0.6624,-0.39153 -2.03815,-3.82898 -5.17912,-6.23119 -9.41109,-7.19204 -0.28854,-0.0656 -0.3982,-0.17806 -0.4026,-0.469 -0.0196,-1.2782 -0.13153,-2.55397 -0.10592,-3.29512 0.0756,-6.93523 0.91643,-13.20678 3.08064,-19.25641 1.24698,-3.48601 2.87745,-6.76769 5.3466,-9.57339 1.34582,-1.52912 2.89375,-2.80896 4.81384,-3.54491 1.08755,-0.41689 2.15001,-0.61133 3.18604,-0.60021 z m -6.18395,30.18147 c 2.19382,5.5e-4 3.79445,1.84991 3.29301,3.80523 -0.37697,1.47028 -1.80478,2.62165 -3.39472,2.73812 -1.52551,0.11204 -2.88146,-0.65383 -3.45373,-1.95084 -0.55106,-1.24778 -0.10247,-2.77709 1.09608,-3.73514 0.67152,-0.53705 1.59136,-0.85777 2.45936,-0.85737 z"
           id="path4518"
           inkscape:connector-curvature="0" />
        <path
           inkscape:connector-curvature="0"
           style="fill:#ffd300;fill-opacity:1;fill-rule:nonzero;stroke:none;stroke-width:0.10244775"
           d="m 781.23349,873.34666 c -0.0937,-0.0472 -0.18648,-0.0897 -0.27533,-0.13887 -1.85566,-1.01607 -3.6485,-2.127 -5.30727,-3.44801 -0.23411,-0.18649 -0.28654,-0.28853 -0.0752,-0.54585 5.40452,-6.59187 10.79984,-13.19135 16.19595,-19.79002 2.7737,-3.39199 5.54739,-6.78357 8.31348,-10.18115 0.17127,-0.2101 0.26892,-0.31014 0.55785,-0.13326 1.80724,1.10731 3.50403,2.3579 5.08717,3.76815 0.26533,0.23612 0.21291,0.35618 0.0172,0.59508 -7.04128,8.60121 -14.07496,17.20842 -21.10864,25.81563 -1.01407,1.24058 -2.02254,2.48596 -3.04022,3.72414 -0.10244,0.12446 -0.17528,0.29653 -0.36496,0.33416"
           id="path4520" />
        <path
           inkscape:connector-curvature="0"
           style="fill:#ffd300;fill-opacity:1;fill-rule:nonzero;stroke:none;stroke-width:0.10244775"
           d="m 786.01652,834.06115 c 2.29227,0.19088 4.58654,0.65791 6.81838,1.42266 0.0484,0.0168 0.0932,0.0496 0.14206,0.0564 0.46262,0.0644 0.48863,0.2277 0.19489,0.58427 -2.51437,3.05502 -5.01554,6.12086 -7.51991,9.18429 -4.20955,5.14919 -8.41872,10.29919 -12.62868,15.44879 -0.88522,1.08251 -1.78403,2.1542 -2.65123,3.25112 -0.22731,0.28733 -0.32815,0.22571 -0.51544,-0.0144 -1.37864,-1.76883 -2.52439,-3.67691 -3.47682,-5.70546 -0.12566,-0.26813 -0.10005,-0.4434 0.0944,-0.68032 6.35376,-7.75801 12.69792,-15.52403 19.04487,-23.28805 0.11446,-0.14007 0.1985,-0.33736 0.49744,-0.25932"
           id="path4522" />
        <path
           inkscape:connector-curvature="0"
           style="fill:#ffd300;fill-opacity:1;fill-rule:nonzero;stroke:none;stroke-width:0.10244775"
           d="m 810.25142,847.74952 c 1.45828,1.95251 2.62881,4.01988 3.55004,6.23171 0.12286,0.29534 0.0788,0.48423 -0.11885,0.72513 -3.62048,4.41686 -7.23096,8.84173 -10.84506,13.26379 -2.3623,2.89055 -4.737,5.77189 -7.0805,8.67804 -0.37417,0.46382 -0.71473,0.68112 -1.35383,0.6263 -2.41592,-0.2081 -4.78942,-0.59388 -7.14693,-1.39346 7.67439,-9.38837 15.32755,-18.75114 22.99513,-28.13151"
           id="path4524" />
        <path
           inkscape:connector-curvature="0"
           style="fill:#ffffff;fill-opacity:1;fill-rule:nonzero;stroke:none;stroke-width:0.10244775"
           d="m 770.12351,836.27298 c -1.55072,-0.005 -2.91375,-0.97686 -3.33875,-2.37871 -0.4058,-1.33983 0.26051,-2.97379 1.55192,-3.80618 1.45468,-0.93763 3.26592,-0.90442 4.48969,0.0824 1.81364,1.46229 1.57314,4.17594 -0.48303,5.45335 -0.72793,0.45221 -1.41065,0.65189 -2.21983,0.6491"
           id="path4526" />
        <g
           transform="matrix(2.8346456,0,0,2.8346456,579.56194,483.29167)"
           inkscape:label="Layer 1"
           id="layer1-5">
          <text
             xml:space="preserve"
             style="font-style:normal;font-variant:normal;font-weight:normal;font-stretch:normal;font-size:13.39130878px;line-height:125%;font-family:'Century Gothic';-inkscape-font-specification:'Century Gothic';letter-spacing:0px;word-spacing:0px;display:inline;fill:#000000;fill-opacity:1;stroke:none;stroke-width:0.10549335px;stroke-linecap:butt;stroke-linejoin:miter;stroke-opacity:1"
             x="8.4507818"
             y="138.46222"
             id="text6254-82-1"
             inkscape:export-filename="C:\thingy.io\logos\text6254-82-7.png"
             inkscape:export-xdpi="600"
             inkscape:export-ydpi="600"><tspan
               sodipodi:role="line"
               id="tspan6252-89-5"
               x="8.4507818"
               y="138.46222"
               style="font-style:normal;font-variant:normal;font-weight:normal;font-stretch:normal;font-size:13.39130878px;font-family:Nunito;-inkscape-font-specification:Nunito;stroke-width:0.10549335px"
               dy="0 0 0 -1.8264894 2.7397342"
               dx="0 0 0">bee<tspan
   style="font-style:normal;font-variant:normal;font-weight:normal;font-stretch:normal;font-family:Nunito;-inkscape-font-specification:Nunito;fill:#808080;fill-opacity:1;stroke-width:0.10549335px"
   id="tspan942"
   dy="-2.7397342">.</tspan>z</tspan></text>
        </g>
        <text
           xml:space="preserve"
           style="font-style:normal;font-weight:normal;font-size:13.86811161px;line-height:1.25;font-family:sans-serif;letter-spacing:0px;word-spacing:0px;fill:#666666;fill-opacity:1;stroke:none;stroke-width:0.34670278"
           x="603.83136"
           y="796.08606"
           id="text1502"
           inkscape:export-xdpi="600.24634"
           inkscape:export-ydpi="600.24634"><tspan
             sodipodi:role="line"
             id="tspan1500"
             x="603.83136"
             y="796.08606"
             style="font-style:normal;font-variant:normal;font-weight:normal;font-stretch:normal;font-family:'OCR A Extended';-inkscape-font-specification:'OCR A Extended';fill:#666666;stroke-width:0.34670278">beez-1012</tspan></text>
      </g>
    </g>
    <g
       id="layer1-9"
       inkscape:label="Layer 1"
       transform="matrix(1.2142858,0,0,0.54285326,-14.999876,55.188862)">
      <rect
         inkscape:export-ydpi="600"
         inkscape:export-xdpi="600"
         rx="4.8012443"
         style="fill:none;stroke:#000000;stroke-width:0.03902819;stroke-miterlimit:4;stroke-dasharray:none;stroke-opacity:1"
         y="32.659027"
         x="59.667213"
         height="69.960968"
         width="69.960968"
         id="rect3701-6-3-0-3-7"
         ry="10.739702" />
    </g>
  </g>
</svg>
